<?xml version="1.0" encoding="utf-8"?>
<!-- Generator: Adobe Illustrator 27.5.0, SVG Export Plug-In . SVG Version: 6.00 Build 0)  -->
<svg version="1.1" id="Layer_1" xmlns="http://www.w3.org/2000/svg" xmlns:xlink="http://www.w3.org/1999/xlink" x="0px" y="0px"
	 viewBox="0 0 24 24" style="enable-background:new 0 0 24 24;" xml:space="preserve">
<style type="text/css">
	.st0{fill:none;stroke:url(#SVGID_1_);stroke-width:1.5;stroke-linecap:round;stroke-linejoin:round;}
</style>
<linearGradient id="SVGID_1_" gradientUnits="userSpaceOnUse" x1="1.2482" y1="11.9999" x2="22.75" y2="11.9999">
	<stop  offset="0.2593" style="stop-color:#FFDB6E"/>
	<stop  offset="1" style="stop-color:#FFBC5E"/>
</linearGradient>
<path class="st0" d="M7,14c-1.7,0-3,1.3-3,3c0,1.7,1.3,3,3,3c0.3,0,0.7-0.1,1-0.2 M4.3,15.6c-2-1-2.8-3.3-1.9-5.3
	C2.6,9.8,3,9.3,3.4,9 M3.4,8.9C2.7,7.7,3,6.2,4.1,5.4C5,4.8,6.2,4.9,7,5.5 M7.2,5.6C6.7,4.3,7.2,2.8,8.4,2.2s2.7-0.1,3.3,1.2
	C11.9,3.8,12,4.1,12,4.5V20 M8,20c0,1.1,0.9,2,2,2s2-0.9,2-2 M12,7c0,1.7,1.3,3,3,3 M20.6,9c0.9,0.8,1.4,1.9,1.4,3
	c0,0.7-0.2,1.4-0.5,1.9 M20.6,8.9c0.8-1.1,0.5-2.7-0.7-3.5c-0.9-0.6-2-0.6-2.9,0.1 M12,4.5C12,3.1,13.1,2,14.5,2
	C15.9,2,17,3.1,17,4.5c0,0.4-0.1,0.7-0.2,1.1 M14,22c-1.1,0-2-0.9-2-2 M18.7,16L17,19h4l-1.7,3"/>
</svg>
